# xmcd CD database file
#
# Track frame offsets:
#	150
#	14645
#	27552
#	45670
#	61797
#	70762
#	83045
#	96075
#	108237
#	121755
#	136995
#
# Disc length: 2024 seconds
#
# Revision: 0
# Processed by: cddbd v1.5.2PL0 Copyright (c) Steve Scherf et al.
# Submitted via: CDex 1.51
#
DISCID=8a07e60b
DTITLE=J.J. Cale - Troubadour
DYEAR=1976
DGENRE=Blues
TTITLE0=Hey Baby
TTITLE1=Travelin' Light
TTITLE2=You Got Someting
TTITLE3=Ride Me High
TTITLE4=Hold on
TTITLE5=I'm a Gypsys Man
TTITLE6=The Woman That Got Away
TTITLE7=Super Blue
TTITLE8=Let me Do It to You
TTITLE9=Cherry
TTITLE10=You Got Me on So Bad
EXTD=YEAR: 1976
EXTT0=
EXTT1=
EXTT2=
EXTT3=
EXTT4=
EXTT5=
EXTT6=
EXTT7=
EXTT8=
EXTT9=
EXTT10=
PLAYORDER=
